<svg version="1.1" id="Capa_1" xmlns="http://www.w3.org/2000/svg" xmlns:xlink="http://www.w3.org/1999/xlink" x="0px" y="0px" width="45.975px" height="45.975px" viewBox="0 0 45.975 45.975" style="enable-background:new 0 0 45.975 45.975;" xml:space="preserve">
<g>
	<g>
		<path d="M33.323,0H12.609C7.298,0,3,4.328,3,9.639v26.71c0,5.311,4.299,9.625,9.609,9.625h20.713c5.312,0,9.651-4.313,9.651-9.625    V9.639C42.974,4.328,38.633,0,33.323,0z M38.932,36.297c0,3.112-2.521,5.635-5.634,5.635H12.612c-3.111,0-5.634-2.522-5.634-5.635    V9.612c0-3.111,2.522-5.634,5.634-5.634h20.687c3.111,0,5.634,2.522,5.634,5.634L38.932,36.297L38.932,36.297z" fill="#ffffff"/>
		<circle cx="15.11" cy="23.507" r="3.011" fill="#ffffff"/>
		<circle cx="22.966" cy="23.507" r="3.011" fill="#ffffff"/>
		<circle cx="30.821" cy="23.507" r="3.011" fill="#ffffff"/>
		<circle cx="15.11" cy="31.362" r="3.011" fill="#ffffff"/>
		<circle cx="22.966" cy="31.362" r="3.011" fill="#ffffff"/>
		<circle cx="30.821" cy="31.362" r="3.011" fill="#ffffff"/>
		<path d="M15.503,17.493h14.926c1.735,0,3.144-1.422,3.144-3.158s-1.407-3.157-3.144-3.157H15.503    c-1.734,0-3.142,1.422-3.142,3.157S13.768,17.493,15.503,17.493z" fill="#ffffff"/>
	</g>
</g>
<g>
</g>
<g>
</g>
<g>
</g>
<g>
</g>
<g>
</g>
<g>
</g>
<g>
</g>
<g>
</g>
<g>
</g>
<g>
</g>
<g>
</g>
<g>
</g>
<g>
</g>
<g>
</g>
<g>
</g>
</svg>